# Blender v2.78 (sub 0) OBJ File: ''
# www.blender.org
mtllib MirrorInv.mtl
o pCube2
v 0.200000 0.512271 0.445298
v 0.275000 0.474771 0.445298
v 0.275000 0.474771 0.545298
v 0.200000 0.512271 0.545298
v 0.350000 0.437271 0.445298
v 0.350000 0.437271 0.545298
v 0.425000 0.399771 0.445298
v 0.425000 0.399771 0.545298
v 0.500000 0.362271 0.445298
v 0.500000 0.362271 0.545298
v 0.575000 0.399771 0.445298
v 0.575000 0.399771 0.545298
v 0.650000 0.437271 0.445298
v 0.650000 0.437271 0.545298
v 0.725000 0.474771 0.445298
v 0.725000 0.474771 0.545298
v 0.800000 0.512271 0.445298
v 0.800000 0.512271 0.545298
v 0.275000 0.587271 0.545298
v 0.200000 0.587271 0.545298
v 0.350000 0.512271 0.545298
v 0.425000 0.474771 0.545298
v 0.500000 0.437271 0.545298
v 0.575000 0.474771 0.545298
v 0.650000 0.512271 0.545298
v 0.725000 0.587271 0.545298
v 0.800000 0.587271 0.545298
v 0.275000 0.662271 0.545298
v 0.200000 0.662271 0.545298
v 0.800000 0.662271 0.545298
v 0.725000 0.662271 0.545298
v 0.275000 0.737271 0.545298
v 0.200000 0.737271 0.545298
v 0.800000 0.737271 0.545298
v 0.725000 0.737271 0.545298
v 0.275000 0.812271 0.545298
v 0.200000 0.812271 0.545298
v 0.800000 0.812271 0.545298
v 0.725000 0.812271 0.545298
v 0.275000 0.887271 0.545298
v 0.200000 0.887271 0.545298
v 0.800000 0.887271 0.545298
v 0.725000 0.887271 0.545298
v 0.275000 0.962271 0.545298
v 0.200000 0.962271 0.545298
v 0.800000 0.962271 0.545298
v 0.725000 0.962271 0.545298
v 0.275000 1.037271 0.545298
v 0.200000 1.037271 0.545298
v 0.800000 1.037271 0.545298
v 0.725000 1.037271 0.545298
v 0.275000 1.149771 0.545298
v 0.200000 1.112271 0.545298
v 0.350000 1.112271 0.545298
v 0.350000 1.187271 0.545298
v 0.425000 1.149771 0.545298
v 0.425000 1.224771 0.545298
v 0.500000 1.187271 0.545298
v 0.500000 1.262271 0.545298
v 0.575000 1.149771 0.545298
v 0.575000 1.224771 0.545298
v 0.650000 1.112271 0.545298
v 0.650000 1.187271 0.545298
v 0.725000 1.149771 0.545298
v 0.800000 1.112271 0.545298
v 0.275000 1.149771 0.445298
v 0.200000 1.112271 0.445298
v 0.350000 1.187271 0.445298
v 0.425000 1.224771 0.445298
v 0.500000 1.262271 0.445298
v 0.575000 1.224771 0.445298
v 0.650000 1.187271 0.445298
v 0.725000 1.149771 0.445298
v 0.800000 1.112271 0.445298
v 0.275000 1.037271 0.445298
v 0.200000 1.037271 0.445298
v 0.350000 1.112271 0.445298
v 0.425000 1.149771 0.445298
v 0.500000 1.187271 0.445298
v 0.575000 1.149771 0.445298
v 0.650000 1.112271 0.445298
v 0.725000 1.037271 0.445298
v 0.800000 1.037271 0.445298
v 0.275000 0.962271 0.445298
v 0.200000 0.962271 0.445298
v 0.800000 0.962271 0.445298
v 0.725000 0.962271 0.445298
v 0.275000 0.887271 0.445298
v 0.200000 0.887271 0.445298
v 0.800000 0.887271 0.445298
v 0.725000 0.887271 0.445298
v 0.275000 0.812271 0.445298
v 0.200000 0.812271 0.445298
v 0.800000 0.812271 0.445298
v 0.725000 0.812271 0.445298
v 0.275000 0.737271 0.445298
v 0.200000 0.737271 0.445298
v 0.800000 0.737271 0.445298
v 0.725000 0.737271 0.445298
v 0.275000 0.662271 0.445298
v 0.200000 0.662271 0.445298
v 0.800000 0.662271 0.445298
v 0.725000 0.662271 0.445298
v 0.275000 0.587271 0.445298
v 0.200000 0.587271 0.445298
v 0.800000 0.587271 0.445298
v 0.725000 0.587271 0.445298
v 0.350000 0.512271 0.445298
v 0.425000 0.474771 0.445298
v 0.500000 0.437271 0.445298
v 0.575000 0.474771 0.445298
v 0.650000 0.512271 0.445298
v 0.350000 0.512271 0.445298
v 0.275000 0.587271 0.445298
v 0.275000 0.662271 0.445298
v 0.425000 0.474771 0.445298
v 0.500000 0.437271 0.445298
v 0.575000 0.474771 0.445298
v 0.650000 0.512271 0.445298
v 0.725000 0.587271 0.445298
v 0.725000 0.662271 0.445298
v 0.275000 0.737271 0.445298
v 0.725000 0.737271 0.445298
v 0.275000 0.812271 0.445298
v 0.725000 0.812271 0.445298
v 0.275000 0.887271 0.445298
v 0.725000 0.887271 0.445298
v 0.275000 0.962271 0.445298
v 0.725000 0.962271 0.445298
v 0.275000 1.037271 0.445298
v 0.350000 1.112271 0.445298
v 0.425000 1.149771 0.445298
v 0.500000 1.187271 0.445298
v 0.575000 1.149771 0.445298
v 0.650000 1.112271 0.445298
v 0.725000 1.037271 0.445298
vt 0.2500 0.0000
vt 0.2813 0.0000
vt 0.2813 0.2500
vt 0.2500 0.2500
vt 0.3125 0.0000
vt 0.3125 0.2500
vt 0.3438 0.0000
vt 0.3438 0.2500
vt 0.3750 0.0000
vt 0.3750 0.2500
vt 0.4063 0.0000
vt 0.4063 0.2500
vt 0.4375 0.0000
vt 0.4375 0.2500
vt 0.4688 0.0000
vt 0.4688 0.2500
vt 0.5000 0.0000
vt 0.5000 0.2500
vt 0.2813 0.2812
vt 0.2500 0.2812
vt 0.3125 0.2812
vt 0.3438 0.2812
vt 0.3750 0.2812
vt 0.4063 0.2812
vt 0.4375 0.2812
vt 0.4688 0.2812
vt 0.5000 0.2812
vt 0.2813 0.3125
vt 0.2500 0.3125
vt 0.5000 0.3125
vt 0.4688 0.3125
vt 0.2813 0.3438
vt 0.2500 0.3438
vt 0.5000 0.3438
vt 0.4688 0.3438
vt 0.2813 0.3750
vt 0.2500 0.3750
vt 0.5000 0.3750
vt 0.4688 0.3750
vt 0.2813 0.4062
vt 0.2500 0.4062
vt 0.5000 0.4062
vt 0.4688 0.4062
vt 0.2813 0.4375
vt 0.2500 0.4375
vt 0.5000 0.4375
vt 0.4688 0.4375
vt 0.2813 0.4688
vt 0.2500 0.4688
vt 0.5000 0.4688
vt 0.4688 0.4688
vt 0.2813 0.5000
vt 0.2500 0.5000
vt 0.3125 0.4688
vt 0.3125 0.5000
vt 0.3438 0.4688
vt 0.3438 0.5000
vt 0.3750 0.4688
vt 0.3750 0.5000
vt 0.4063 0.4688
vt 0.4063 0.5000
vt 0.4375 0.4688
vt 0.4375 0.5000
vt 0.4688 0.5000
vt 0.5000 0.5000
vt 0.2813 0.7500
vt 0.2500 0.7500
vt 0.3125 0.7500
vt 0.3438 0.7500
vt 0.3750 0.7500
vt 0.4063 0.7500
vt 0.4375 0.7500
vt 0.4688 0.7500
vt 0.5000 0.7500
vt 0.2813 0.7812
vt 0.2500 0.7812
vt 0.3125 0.7812
vt 0.3438 0.7812
vt 0.3750 0.7812
vt 0.4063 0.7812
vt 0.4375 0.7812
vt 0.4688 0.7812
vt 0.5000 0.7812
vt 0.2813 0.8125
vt 0.2500 0.8125
vt 0.5000 0.8125
vt 0.4688 0.8125
vt 0.2813 0.8438
vt 0.2500 0.8438
vt 0.5000 0.8438
vt 0.4688 0.8438
vt 0.2813 0.8750
vt 0.2500 0.8750
vt 0.5000 0.8750
vt 0.4688 0.8750
vt 0.2813 0.9062
vt 0.2500 0.9062
vt 0.5000 0.9062
vt 0.4688 0.9062
vt 0.2813 0.9375
vt 0.2500 0.9375
vt 0.5000 0.9375
vt 0.4688 0.9375
vt 0.2813 0.9688
vt 0.2500 0.9688
vt 0.5000 0.9688
vt 0.4688 0.9688
vt 0.2813 1.0000
vt 0.2500 1.0000
vt 0.3125 0.9688
vt 0.3125 1.0000
vt 0.3438 0.9688
vt 0.3438 1.0000
vt 0.3750 0.9688
vt 0.3750 1.0000
vt 0.4063 0.9688
vt 0.4063 1.0000
vt 0.4375 0.9688
vt 0.4375 1.0000
vt 0.4688 1.0000
vt 0.5000 1.0000
vt 0.7188 0.0000
vt 0.7500 0.0000
vt 0.7500 0.2500
vt 0.7188 0.2500
vt 0.6875 0.0000
vt 0.6875 0.2500
vt 0.6563 0.0000
vt 0.6563 0.2500
vt 0.6250 0.0000
vt 0.6250 0.2500
vt 0.5938 0.0000
vt 0.5938 0.2500
vt 0.5625 0.0000
vt 0.5625 0.2500
vt 0.5313 0.0000
vt 0.5313 0.2500
vt 0.0000 0.0000
vt 0.0313 0.0000
vt 0.0313 0.2500
vt 0.0000 0.2500
vt 0.0625 0.0000
vt 0.0625 0.2500
vt 0.0938 0.0000
vt 0.0938 0.2500
vt 0.1250 0.0000
vt 0.1250 0.2500
vt 0.1563 0.0000
vt 0.1563 0.2500
vt 0.1875 0.0000
vt 0.1875 0.2500
vt 0.2188 0.0000
vt 0.2188 0.2500
vt 0.3125 0.2812
vt 0.2813 0.2812
vt 0.2813 0.3125
vt 0.3438 0.2812
vt 0.3750 0.2812
vt 0.4063 0.2812
vt 0.4375 0.2812
vt 0.4688 0.2812
vt 0.4688 0.3125
vt 0.2813 0.3438
vt 0.4688 0.3438
vt 0.2813 0.3750
vt 0.4688 0.3750
vt 0.2813 0.4062
vt 0.4688 0.4062
vt 0.2813 0.4375
vt 0.4688 0.4375
vt 0.2813 0.4688
vt 0.3125 0.4688
vt 0.3438 0.4688
vt 0.3750 0.4688
vt 0.4063 0.4688
vt 0.4375 0.4688
vt 0.4688 0.4688
vn -0.4472 -0.8944 0.0000
vn 0.0000 -1.0000 0.0000
vn 0.4472 -0.8944 0.0000
vn -0.0000 0.0000 1.0000
vn -0.4472 0.8944 0.0000
vn 0.0000 1.0000 0.0000
vn 0.4472 0.8944 0.0000
vn 0.0000 0.0000 -1.0000
vn 1.0000 0.0000 0.0000
vn -1.0000 0.0000 0.0000
vn 0.7071 0.7071 0.0000
vn 0.6000 0.8000 0.0000
vn -0.6000 0.8000 -0.0000
vn -0.7071 0.7071 0.0000
vn 0.6000 -0.8000 -0.0000
vn 0.7071 -0.7071 0.0000
vn -0.6000 -0.8000 0.0000
vn -0.7071 -0.7071 0.0000
usemtl lambert2SG
s 1
f 1/1/1 2/2/1 3/3/1 4/4/1
f 2/2/1 5/5/1 6/6/1 3/3/1
f 5/5/1 7/7/1 8/8/1 6/6/1
f 7/7/1 9/9/2 10/10/2 8/8/1
f 9/9/2 11/11/3 12/12/3 10/10/2
f 11/11/3 13/13/3 14/14/3 12/12/3
f 13/13/3 15/15/3 16/16/3 14/14/3
f 15/15/3 17/17/3 18/18/3 16/16/3
f 4/4/4 3/3/4 19/19/4 20/20/4
f 3/3/4 6/6/4 21/21/4 19/19/4
f 6/6/4 8/8/4 22/22/4 21/21/4
f 8/8/4 10/10/4 23/23/4 22/22/4
f 10/10/4 12/12/4 24/24/4 23/23/4
f 12/12/4 14/14/4 25/25/4 24/24/4
f 14/14/4 16/16/4 26/26/4 25/25/4
f 16/16/4 18/18/4 27/27/4 26/26/4
f 20/20/4 19/19/4 28/28/4 29/29/4
f 26/26/4 27/27/4 30/30/4 31/31/4
f 29/29/4 28/28/4 32/32/4 33/33/4
f 31/31/4 30/30/4 34/34/4 35/35/4
f 33/33/4 32/32/4 36/36/4 37/37/4
f 35/35/4 34/34/4 38/38/4 39/39/4
f 37/37/4 36/36/4 40/40/4 41/41/4
f 39/39/4 38/38/4 42/42/4 43/43/4
f 41/41/4 40/40/4 44/44/4 45/45/4
f 43/43/4 42/42/4 46/46/4 47/47/4
f 45/45/4 44/44/4 48/48/4 49/49/4
f 47/47/4 46/46/4 50/50/4 51/51/4
f 49/49/4 48/48/4 52/52/4 53/53/4
f 48/48/4 54/54/4 55/55/4 52/52/4
f 54/54/4 56/56/4 57/57/4 55/55/4
f 56/56/4 58/58/4 59/59/4 57/57/4
f 58/58/4 60/60/4 61/61/4 59/59/4
f 60/60/4 62/62/4 63/63/4 61/61/4
f 62/62/4 51/51/4 64/64/4 63/63/4
f 51/51/4 50/50/4 65/65/4 64/64/4
f 53/53/5 52/52/5 66/66/5 67/67/5
f 52/52/5 55/55/5 68/68/5 66/66/5
f 55/55/5 57/57/5 69/69/5 68/68/5
f 57/57/5 59/59/6 70/70/6 69/69/5
f 59/59/6 61/61/7 71/71/7 70/70/6
f 61/61/7 63/63/7 72/72/7 71/71/7
f 63/63/7 64/64/7 73/73/7 72/72/7
f 64/64/7 65/65/7 74/74/7 73/73/7
f 67/67/8 66/66/8 75/75/8 76/76/8
f 66/66/8 68/68/8 77/77/8 75/75/8
f 68/68/8 69/69/8 78/78/8 77/77/8
f 69/69/8 70/70/8 79/79/8 78/78/8
f 70/70/8 71/71/8 80/80/8 79/79/8
f 71/71/8 72/72/8 81/81/8 80/80/8
f 72/72/8 73/73/8 82/82/8 81/81/8
f 73/73/8 74/74/8 83/83/8 82/82/8
f 76/76/8 75/75/8 84/84/8 85/85/8
f 82/82/8 83/83/8 86/86/8 87/87/8
f 85/85/8 84/84/8 88/88/8 89/89/8
f 87/87/8 86/86/8 90/90/8 91/91/8
f 89/89/8 88/88/8 92/92/8 93/93/8
f 91/91/8 90/90/8 94/94/8 95/95/8
f 93/93/8 92/92/8 96/96/8 97/97/8
f 95/95/8 94/94/8 98/98/8 99/99/8
f 97/97/8 96/96/8 100/100/8 101/101/8
f 99/99/8 98/98/8 102/102/8 103/103/8
f 101/101/8 100/100/8 104/104/8 105/105/8
f 103/103/8 102/102/8 106/106/8 107/107/8
f 105/105/8 104/104/8 2/108/8 1/109/8
f 104/104/8 108/110/8 5/111/8 2/108/8
f 108/110/8 109/112/8 7/113/8 5/111/8
f 109/112/8 110/114/8 9/115/8 7/113/8
f 110/114/8 111/116/8 11/117/8 9/115/8
f 111/116/8 112/118/8 13/119/8 11/117/8
f 112/118/8 107/107/8 15/120/8 13/119/8
f 107/107/8 106/106/8 17/121/8 15/120/8
f 83/122/9 74/123/9 65/124/9 50/125/9
f 86/126/9 83/122/9 50/125/9 46/127/9
f 90/128/9 86/126/9 46/127/9 42/129/9
f 94/130/9 90/128/9 42/129/9 38/131/9
f 98/132/9 94/130/9 38/131/9 34/133/9
f 102/134/9 98/132/9 34/133/9 30/135/9
f 106/136/9 102/134/9 30/135/9 27/137/9
f 17/17/9 106/136/9 27/137/9 18/18/9
f 67/138/10 76/139/10 49/140/10 53/141/10
f 76/139/10 85/142/10 45/143/10 49/140/10
f 85/142/10 89/144/10 41/145/10 45/143/10
f 89/144/10 93/146/10 37/147/10 41/145/10
f 93/146/10 97/148/10 33/149/10 37/147/10
f 97/148/10 101/150/10 29/151/10 33/149/10
f 101/150/10 105/152/10 20/153/10 29/151/10
f 105/152/10 1/1/10 4/4/10 20/153/10
f 19/19/11 21/21/12 113/154/12 114/155/11
f 28/28/9 19/19/9 114/155/9 115/156/9
f 21/21/12 22/22/7 116/157/7 113/154/12
f 22/22/7 23/23/6 117/158/6 116/157/7
f 23/23/6 24/24/5 118/159/5 117/158/6
f 24/24/5 25/25/13 119/160/13 118/159/5
f 25/25/13 26/26/14 120/161/14 119/160/13
f 26/26/10 31/31/10 121/162/10 120/161/10
f 32/32/9 28/28/9 115/156/9 122/163/9
f 31/31/10 35/35/10 123/164/10 121/162/10
f 36/36/9 32/32/9 122/163/9 124/165/9
f 35/35/10 39/39/10 125/166/10 123/164/10
f 40/40/9 36/36/9 124/165/9 126/167/9
f 39/39/10 43/43/10 127/168/10 125/166/10
f 44/44/9 40/40/9 126/167/9 128/169/9
f 43/43/10 47/47/10 129/170/10 127/168/10
f 54/54/15 48/48/16 130/171/16 131/172/15
f 48/48/9 44/44/9 128/169/9 130/171/9
f 56/56/3 54/54/15 131/172/15 132/173/3
f 58/58/2 56/56/3 132/173/3 133/174/2
f 60/60/1 58/58/2 133/174/2 134/175/1
f 62/62/17 60/60/1 134/175/1 135/176/17
f 47/47/10 51/51/10 136/177/10 129/170/10
f 51/51/18 62/62/17 135/176/17 136/177/18
o pPlane1
v 0.250000 0.557502 0.503345
v 0.500000 0.418502 0.503345
v 0.500000 1.222260 0.503345
v 0.250000 1.057502 0.503345
v 0.750000 0.557502 0.503345
v 0.750000 1.057502 0.503345
vt 0.0000 0.0000
vt 0.5000 0.0000
vt 0.5000 1.0000
vt 0.0000 1.0000
vt 1.0000 0.0000
vt 1.0000 1.0000
vn -0.0000 -0.0000 1.0000
usemtl blinn1SG
s 1
f 137/178/19 138/179/19 139/180/19 140/181/19
f 138/179/19 141/182/19 142/183/19 139/180/19
